<?xml version="1.0" encoding="UTF-8"?>
<svg id="_レイヤー_2" data-name="レイヤー 2" xmlns="http://www.w3.org/2000/svg" viewBox="0 0 142 190">
  <defs>
    <style>
      .cls-1 {
        fill: #8be4ef;
      }

      .cls-2 {
        fill: #fff;
      }

      .cls-3 {
        fill: #222;
        fill-rule: evenodd;
      }

      .cls-4 {
        fill: #61ac8f;
      }
    </style>
  </defs>
  <g id="_レイヤー_1-2" data-name="レイヤー 1">
    <path class="cls-2" d="M66.37,0C29.72,0,0,29.68,0,66.29v123.71l142-16.8v-97.67C142,33.82,108.14,0,66.37,0Z"/>
    <g>
      <path class="cls-4" d="M139,171.1L4,187l56.87-59,21.26,17.03,17.01-17.03,39.86,43.1Z"/>
      <path class="cls-1" d="M47.5,44.5c-3.59,6.64-25.7,8.91-41.5-.64,19.5-48.36,92-64.86,126,0-14.26,7.46-22.16,11.53-42,.14-16.44,8.53-25.6,8.42-42.5.5Z"/>
      <path class="cls-3" d="M66.37,3.2C31.49,3.2,3.2,31.45,3.2,66.29v120.11l133.86-15.84-38.34-40.84-30.24,34.18-2.26-2.26,32.58-36.52,40,42.61v-92.2C138.8,35.58,106.37,3.2,66.37,3.2ZM0,66.29C0,29.68,29.72,0,66.37,0c41.77,0,75.63,33.82,75.63,75.53v97.67L0,190v-123.71Z"/>
      <path class="cls-3" d="M5.13,44.96c.35-.8,1.29-1.18,2.11-.83l6.81,2.87c10.93,4.6,23.46,3.57,33.47-2.74.75-.47,1.74-.26,2.22.48.48.73.26,1.71-.49,2.18-10.9,6.88-24.56,8-36.47,2.99l-6.81-2.87c-.82-.34-1.2-1.27-.85-2.08Z"/>
      <path class="cls-3" d="M47.14,44.95c.36-.8,1.31-1.17,2.12-.82l6.59,2.85c10.65,4.6,22.95,3.58,32.66-2.72.74-.48,1.74-.28,2.23.45.49.73.28,1.71-.46,2.2-10.63,6.89-24.07,8.01-35.73,2.97l-6.59-2.85c-.82-.35-1.18-1.29-.83-2.09Z"/>
      <path class="cls-3" d="M88.13,44.96c.36-.8,1.32-1.18,2.16-.83l6.97,2.87c11.17,4.6,23.99,2.57,34.21-3.74.76-.47,1.78-.26,2.27.48.49.74.27,1.71-.5,2.19-11.15,6.88-25.11,9-37.28,3.99l-6.97-2.87c-.83-.34-1.22-1.27-.86-2.08Z"/>
      <path class="cls-3" d="M68.79,99.66v-46.66h3.21v46.66c0,4.05-3.36,7.34-7.5,7.34s-7.5-3.29-7.5-7.34v-2.24h3.21v2.24c0,2.32,1.92,4.19,4.29,4.19s4.29-1.88,4.29-4.19Z"/>
      <path class="cls-1" d="M28.29,80.29l4.21-9.79c.13-.34.24-.58.34-.23l2.99,10.37c.39,1.36.08,2.73-.67,3.74-1.46,1.96-4.65,1.51-6.17-.41-.8-1.02-1.23-2.32-.7-3.68Z"/>
      <path class="cls-3" d="M32.96,71.38l-3.65,8.95c-.9,2.21.76,4.62,3.19,4.62,2.3,0,3.95-2.17,3.29-4.34l-2.82-9.24ZM32.15,70.55c.32-.77,1.45-.72,1.69.07l2.96,9.69c.87,2.83-1.29,5.68-4.31,5.68-3.18,0-5.36-3.15-4.18-6.05l3.83-9.39Z"/>
      <path class="cls-1" d="M19.29,95.29l3.02-9.32c.13-.34.59-.32.69.03l3.83,9.64c.77,2.67-1.15,4.36-3.83,4.36-2.83,0-4.76-1.97-3.71-4.71Z"/>
      <path class="cls-3" d="M22.96,86.38l-3.65,8.95c-.9,2.21.76,4.62,3.19,4.62,2.3,0,3.95-2.17,3.29-4.34l-2.82-9.24ZM22.15,85.55c.32-.77,1.45-.72,1.69.07l2.96,9.69c.87,2.83-1.29,5.68-4.31,5.68-3.18,0-5.36-3.15-4.18-6.05l3.83-9.39Z"/>
      <path class="cls-3" d="M62.07,125l22.93,18.36-2,2.47-20.7-16.57L3.26,188l-2.26-2.24,61.07-60.76Z"/>
    </g>
  </g>
</svg>